<?xml version="1.0" encoding="utf-8"?>
<!-- Generator: Adobe Illustrator 16.0.0, SVG Export Plug-In . SVG Version: 6.00 Build 0)  -->
<!DOCTYPE svg PUBLIC "-//W3C//DTD SVG 1.1//EN" "http://www.w3.org/Graphics/SVG/1.1/DTD/svg11.dtd" [
	<!ENTITY st0 "fill-rule:evenodd;clip-rule:evenodd;fill:#53301A;">
	<!ENTITY st1 "fill-rule:evenodd;clip-rule:evenodd;fill:#00B4CB;">
]>
<svg version="1.1" id="Layer_1" xmlns="http://www.w3.org/2000/svg" xmlns:xlink="http://www.w3.org/1999/xlink" x="0px" y="0px"
	 width="300px" height="35px" viewBox="0 0 300 35" style="enable-background:new 0 0 300 35;" xml:space="preserve">
<g>
	<polygon style="&st1;" points="0,35.1 0,25 1.5,25 1.5,29.3 30.3,29.3 30.3,30.8 1.5,30.8 1.5,35.1 	"/>
	<polygon style="&st1;" points="30.3,14.6 11.8,14.6 11.8,21 30.3,21 30.3,22.3 5.3,22.3 5.3,21 10.6,21 10.6,14.6 5.3,14.6 
		5.3,13.4 30.3,13.4 	"/>
	<polygon style="&st1;" points="5.3,8.9 5.3,0.6 6.5,0.7 6.5,7.7 29,7.7 29,0.6 30.2,0.6 30.2,8.9 	"/>
	<path style="&st0;" d="M42.2,16c-1.7,1.6-3.5,2.5-5.6,2.8v11.5c2.1-0.4,3.8-1.4,5.2-3.1c1.4-1.7,2.1-3.6,2.1-5.9
		C43.9,19.4,43.3,17.6,42.2,16z M36.6,17.2c1.8-0.3,3.3-1.1,4.5-2.6c1.2-1.4,1.8-3.1,1.8-5c0-1.9-0.6-3.5-1.8-5
		c-1.2-1.5-2.7-2.3-4.5-2.6L36.6,17.2z M43.1,14.7c0.7,1,1.3,2,1.7,3.2c0.5,1.2,0.7,2.3,0.7,3.5c0,2.9-1,5.4-3,7.5S38,32,35.1,32.2
		l0-31.7l0.7,0l0.6,0.1l0.4,0.1C39,1,40.8,2,42.3,3.7c1.5,1.7,2.2,3.7,2.2,6C44.5,11.4,44,13,43.1,14.7z"/>
	<path style="&st0;" d="M53.6,24.8c0.6,0,0.9,0.3,0.9,0.9c0,0.6-0.3,0.9-0.9,0.9c-0.6,0-0.9-0.3-0.9-0.9
		C52.8,25,53.1,24.8,53.6,24.8z M48.3,6h8.6l0,1.3h-7.3v23.6h7.3v1.3h-8.6V6z"/>
	<path style="&st1;" d="M23.7,3.2c0.6,0,0.9,0.3,0.9,0.9c0,0.6-0.3,0.9-0.9,0.9c-0.6,0-0.9-0.3-0.9-0.9C22.9,3.5,23.1,3.2,23.7,3.2z
		"/>
	<path style="&st0;" d="M66.6,19.7c-1.9,0-3.6-0.7-4.9-2c-1.3-1.3-2-3-2-4.9c0-1.9,0.7-3.5,2-4.8c1.3-1.4,3-2,4.9-2
		c1.9,0,3.5,0.7,4.8,2c1.3,1.4,2,3,2,4.8H72c0-1.5-0.5-2.8-1.6-3.9c-1.1-1.1-2.4-1.6-3.9-1.6c-1.5,0-2.8,0.5-3.9,1.6
		c-1.1,1.1-1.6,2.4-1.6,3.9c0,1.5,0.5,2.9,1.6,3.9c1.1,1.1,2.4,1.6,4,1.6c1.9,0,3.5,0.7,4.8,2c1.3,1.3,1.9,3,1.9,4.8
		c0,1.9-0.7,3.5-2,4.8c-1.3,1.3-3,2-4.8,2c-1.9,0-3.5-0.7-4.9-2c-1.3-1.3-2-3-2-4.9h1.3c0,1.5,0.5,2.9,1.6,4
		c1.1,1.1,2.4,1.6,3.9,1.6c1.5,0,2.8-0.5,3.9-1.6c1.1-1.1,1.6-2.4,1.6-3.9s-0.5-2.8-1.5-3.9C69.4,20.3,68.1,19.7,66.6,19.7z"/>
	<polygon style="&st0;" points="75.7,6 84.4,6 84.4,7.3 80.7,7.3 80.7,32.2 79.4,32.2 79.4,7.3 75.7,7.3 	"/>
	<path style="&st0;" d="M94.8,16c-1.7,1.6-3.5,2.5-5.6,2.8v11.5c2.1-0.4,3.8-1.4,5.2-3.1c1.4-1.7,2.1-3.6,2.1-5.9
		C96.5,19.4,95.9,17.6,94.8,16z M89.2,17.2c1.8-0.3,3.3-1.1,4.5-2.6c1.2-1.4,1.8-3.1,1.8-5c0-1.9-0.6-3.5-1.8-5
		c-1.2-1.5-2.7-2.3-4.5-2.6L89.2,17.2z M95.7,14.7c0.7,1,1.3,2,1.7,3.2c0.5,1.2,0.7,2.3,0.7,3.5c0,2.9-1,5.4-3,7.5
		c-2,2.1-4.5,3.2-7.4,3.3l0-31.7l0.7,0l0.6,0.1l0.5,0.1c2.2,0.4,4,1.4,5.5,3.1c1.5,1.7,2.2,3.7,2.2,6C97,11.4,96.6,13,95.7,14.7z"/>
	<path style="&st0;" d="M113.8,18.2c0.6,0,0.9,0.3,0.9,0.9c0,0.6-0.3,0.9-0.9,0.9c-0.6,0-0.9-0.3-0.9-0.9
		C113,18.5,113.3,18.2,113.8,18.2z M113.8,7.3c-3.2,0-6,1.2-8.3,3.5c-2.3,2.3-3.4,5.1-3.4,8.3c0,3.2,1.2,6,3.4,8.3
		c2.3,2.3,5.1,3.5,8.3,3.5c3.2,0,6-1.2,8.3-3.5s3.4-5.1,3.4-8.3c0-3.2-1.1-6-3.4-8.3C119.8,8.5,117.1,7.3,113.8,7.3z M113.8,6
		c3.6,0,6.7,1.3,9.2,3.9c2.6,2.6,3.8,5.6,3.8,9.2c0,3.6-1.3,6.7-3.8,9.2c-2.6,2.6-5.6,3.8-9.2,3.8s-6.7-1.3-9.2-3.8
		c-2.5-2.6-3.8-5.6-3.8-9.2c0-3.6,1.3-6.7,3.8-9.2C107.2,7.3,110.2,6,113.8,6z"/>
	<path style="&st0;" d="M138.7,27.9c0,1.2-0.4,2.2-1.3,3c-0.8,0.8-1.8,1.2-3,1.2c-1.2,0-2.2-0.4-3.1-1.2c-0.8-0.8-1.3-1.9-1.2-3.1V6
		h1.3v21.9c0,0.9,0.3,1.6,0.9,2.1c0.6,0.6,1.3,0.8,2.1,0.8c0.8,0,1.5-0.3,2.1-0.8c0.6-0.5,0.9-1.3,0.9-2.1l0-21.9h1.3V27.9z"/>
	<polygon style="&st0;" points="141.8,6 150.5,6 150.5,7.3 146.8,7.3 146.8,32.2 145.5,32.2 145.5,7.3 141.8,7.3 	"/>
	<rect x="153.9" y="6" style="&st0;" width="1.3" height="26.2"/>
	<path style="&st0;" d="M171.2,18.2c0.6,0,0.9,0.3,0.9,0.9c0,0.6-0.3,0.9-0.9,0.9c-0.6,0-0.9-0.3-0.9-0.9
		C170.3,18.5,170.6,18.2,171.2,18.2z M179.4,27.5c1-1.1,1.9-2.4,2.5-3.8c0.6-1.5,1-3,1-4.6c0-3.2-1.2-6-3.5-8.3
		c-2.3-2.3-5.1-3.5-8.3-3.5c-3.2,0-6,1.2-8.3,3.5c-2.3,2.3-3.4,5.1-3.4,8.3c0,3.2,1.2,6,3.4,8.3c2.3,2.3,5.1,3.5,8.3,3.5
		c2.8,0,5.2-0.9,7.3-2.6l-1.9-3.1h1.3L179.4,27.5z M180.2,28.6l2.3,3.6h-1.4l-1.9-2.8c-2.4,1.9-5.1,2.8-8.1,2.8
		c-3.6,0-6.7-1.3-9.2-3.8c-2.5-2.6-3.8-5.6-3.8-9.2c0-3.6,1.3-6.7,3.8-9.2c2.6-2.6,5.6-3.9,9.2-3.9c3.6,0,6.7,1.3,9.2,3.9
		c2.6,2.6,3.8,5.6,3.8,9.2c0,1.8-0.4,3.6-1.1,5.2C182.4,25.9,181.4,27.3,180.2,28.6z"/>
	<path style="&st0;" d="M195.8,27.9c0,1.2-0.4,2.2-1.3,3c-0.8,0.8-1.8,1.2-3,1.2c-1.2,0-2.2-0.4-3.1-1.2c-0.8-0.8-1.2-1.9-1.2-3.1V6
		h1.3v21.9c0,0.9,0.3,1.6,0.9,2.1c0.6,0.6,1.3,0.8,2.1,0.8c0.8,0,1.5-0.3,2.1-0.8c0.6-0.5,0.9-1.3,0.9-2.1l0-21.9h1.3V27.9z"/>
	<path style="&st0;" d="M204.8,24.8c0.6,0,0.9,0.3,0.9,0.9c0,0.6-0.3,0.9-0.9,0.9c-0.6,0-0.9-0.3-0.9-0.9
		C203.9,25,204.2,24.8,204.8,24.8z M199.4,6h8.6l0,1.3h-7.3v23.6h7.3v1.3h-8.6V6z"/>
	<polygon style="&st0;" points="221.7,32.1 221.7,8.8 213.6,8.8 213.6,32.2 212,32.2 212,0.5 213.6,0.5 213.6,7.2 221.7,7.2 
		221.7,0.5 223.2,0.5 223.2,32.1 	"/>
	<path style="&st0;" d="M239.8,18.2c0.6,0,0.9,0.3,0.9,0.9c0,0.6-0.3,0.9-0.9,0.9c-0.6,0-0.9-0.3-0.9-0.9
		C238.9,18.5,239.2,18.2,239.8,18.2z M239.8,7.3c-3.2,0-6,1.2-8.3,3.5c-2.3,2.3-3.4,5.1-3.4,8.3c0,3.2,1.1,6,3.4,8.3
		c2.3,2.3,5.1,3.5,8.3,3.5c3.2,0,6-1.2,8.3-3.5c2.3-2.3,3.5-5.1,3.5-8.3c0-3.2-1.2-6-3.5-8.3C245.8,8.5,243,7.3,239.8,7.3z M239.8,6
		c3.6,0,6.7,1.3,9.2,3.9c2.6,2.6,3.8,5.6,3.8,9.2c0,3.6-1.3,6.7-3.8,9.2c-2.6,2.6-5.6,3.8-9.2,3.8c-3.6,0-6.7-1.3-9.2-3.8
		c-2.5-2.6-3.8-5.6-3.8-9.2c0-3.6,1.3-6.7,3.8-9.2C233.1,7.3,236.2,6,239.8,6z"/>
	<polygon style="&st0;" points="254.1,6 262.8,6 262.8,7.3 259.1,7.3 259.1,32.2 257.8,32.2 257.8,7.3 254.1,7.3 	"/>
	<path style="&st0;" d="M271.1,24.8c0.6,0,0.9,0.3,0.9,0.9c0,0.6-0.3,0.9-0.9,0.9c-0.6,0-0.9-0.3-0.9-0.9
		C270.3,25,270.5,24.8,271.1,24.8z M265.7,6h8.6l0,1.3H267v23.6h7.3v1.3h-8.6V6z"/>
	<polygon style="&st0;" points="277.1,6 278.4,6 278.4,30.9 285.7,30.9 285.7,32.2 277.1,32.2 	"/>
	<path style="&st0;" d="M293.2,19.7c-1.9,0-3.6-0.7-4.9-2c-1.3-1.3-2-3-2-4.9c0-1.9,0.7-3.5,2-4.8s3-2,4.8-2c1.9,0,3.5,0.7,4.8,2
		c1.3,1.4,2,3,2,4.8h-1.3c0-1.5-0.5-2.8-1.6-3.9c-1.1-1.1-2.4-1.6-3.9-1.6c-1.5,0-2.8,0.5-3.9,1.6c-1.1,1.1-1.6,2.4-1.6,3.9
		c0,1.5,0.6,2.9,1.6,3.9c1.1,1.1,2.4,1.6,4,1.6c1.9,0,3.5,0.7,4.8,2c1.3,1.3,1.9,3,1.9,4.8c0,1.9-0.7,3.5-2,4.8c-1.3,1.3-3,2-4.8,2
		c-1.9,0-3.5-0.7-4.9-2c-1.3-1.3-2-3-2-4.9h1.3c0,1.5,0.5,2.9,1.6,4c1.1,1.1,2.4,1.6,3.9,1.6c1.5,0,2.8-0.5,3.9-1.6
		c1.1-1.1,1.6-2.4,1.6-3.9s-0.5-2.8-1.5-3.9C296.1,20.3,294.8,19.7,293.2,19.7z"/>
</g>
</svg>
