<?xml version="1.0" encoding="utf-8"?>
<!-- Generator: Adobe Illustrator 16.0.0, SVG Export Plug-In . SVG Version: 6.00 Build 0)  -->
<!DOCTYPE svg PUBLIC "-//W3C//DTD SVG 1.1//EN" "http://www.w3.org/Graphics/SVG/1.1/DTD/svg11.dtd" [
	<!ENTITY st0 "fill-rule:evenodd;clip-rule:evenodd;fill:#AB9C6A;">
]>
<svg version="1.1" id="Layer_1" xmlns="http://www.w3.org/2000/svg" xmlns:xlink="http://www.w3.org/1999/xlink" x="0px" y="0px"
	 width="40px" height="50px" viewBox="0 0 40 50" style="enable-background:new 0 0 40 50;" xml:space="preserve">
<g>
	<g>
		<g>
			<polygon style="&st0;" points="11.7,0 16.6,0 16.6,0.7 14.5,0.7 14.5,14.4 13.8,14.4 13.8,0.7 11.7,0.7 			"/>
			<polygon style="&st0;" points="21.6,14.4 21.6,5.6 18.5,5.6 18.5,14.4 17.9,14.4 17.9,2.5 18.5,2.5 18.5,5 21.6,5 21.6,2.5 
				22.2,2.5 22.2,14.4 			"/>
			<path style="&st0;" d="M26.6,10.8c0.4,0,0.5,0.2,0.5,0.5c0,0.4-0.2,0.5-0.5,0.5c-0.4,0-0.5-0.2-0.5-0.5
				C26.1,10.9,26.3,10.8,26.6,10.8z M24.3,2.5h4l0,0.6h-3.4v10.7h3.4v0.6h-4V2.5z"/>
		</g>
		<g>
			<path style="&st0;" d="M7.7,33.2c-1.8,1.6-3.7,2.6-5.9,2.9v12c2.2-0.4,4-1.5,5.5-3.2c1.5-1.8,2.2-3.8,2.2-6.1
				C9.5,36.7,8.9,34.9,7.7,33.2z M1.8,34.4c1.9-0.3,3.5-1.2,4.7-2.7c1.3-1.5,1.9-3.2,1.9-5.2c0-2-0.6-3.7-1.9-5.2
				c-1.3-1.5-2.9-2.4-4.7-2.7L1.8,34.4z M8.7,31.8c0.7,1,1.3,2.1,1.8,3.3c0.5,1.2,0.7,2.4,0.7,3.7c0,3-1.1,5.6-3.2,7.8
				c-2.1,2.2-4.7,3.3-7.8,3.5l0-33l0.7,0L1.5,17L2,17.1c2.3,0.4,4.3,1.4,5.8,3.2c1.5,1.8,2.3,3.9,2.3,6.2
				C10.1,28.3,9.6,30.1,8.7,31.8z"/>
			<path style="&st0;" d="M21.6,33.2c-1.8,1.6-3.7,2.6-5.9,2.9v12c2.2-0.4,4-1.5,5.5-3.2c1.5-1.8,2.2-3.8,2.2-6.1
				C23.5,36.7,22.8,34.9,21.6,33.2z M15.7,34.4c1.9-0.3,3.5-1.2,4.7-2.7c1.3-1.5,1.9-3.2,1.9-5.2c0-2-0.6-3.7-1.9-5.2
				c-1.3-1.5-2.8-2.4-4.7-2.7L15.7,34.4z M22.6,31.8c0.7,1,1.3,2.1,1.8,3.3c0.5,1.2,0.7,2.4,0.7,3.7c0,3-1.1,5.6-3.2,7.8
				c-2.1,2.2-4.7,3.3-7.8,3.5l0-33l0.8,0l0.6,0.1l0.5,0.1c2.3,0.4,4.3,1.4,5.8,3.2c1.5,1.8,2.3,3.9,2.3,6.2
				C24.1,28.3,23.6,30.1,22.6,31.8z"/>
			<polygon style="&st0;" points="38.2,50 38.2,25.7 29.7,25.7 29.7,50 28,50 28,17 29.7,17 29.7,24 38.2,24 38.2,17 39.9,17 
				39.9,50 			"/>
		</g>
	</g>
</g>
</svg>
