<?xml version="1.0" encoding="utf-8"?>
<!-- Generator: Adobe Illustrator 16.0.0, SVG Export Plug-In . SVG Version: 6.00 Build 0)  -->
<!DOCTYPE svg PUBLIC "-//W3C//DTD SVG 1.1//EN" "http://www.w3.org/Graphics/SVG/1.1/DTD/svg11.dtd" [
	<!ENTITY st0 "fill:#AA862E;">
	<!ENTITY st1 "fill:#53301A;">
	<!ENTITY st2 "fill-rule:evenodd;clip-rule:evenodd;fill:#53301A;">
]>
<svg version="1.1" id="Layer_1" xmlns="http://www.w3.org/2000/svg" xmlns:xlink="http://www.w3.org/1999/xlink" x="0px" y="0px"
	 width="50px" height="50px" viewBox="0 0 50 50" style="enable-background:new 0 0 50 50;" xml:space="preserve">
<g>
	<g>
		<path style="&st0;" d="M48.2,27.1L48.2,27.1c1-0.2,1.8-1,1.8-2.1c0-1-0.7-1.8-1.7-2c0.9-0.3,1.5-1.3,1.4-2.3
			c-0.2-1-1.1-1.7-2.1-1.7l0-0.1c0.9-0.5,1.4-1.5,1-2.5c-0.4-1-1.4-1.5-2.4-1.3l0-0.1c0.8-0.6,1.1-1.7,0.6-2.6
			c-0.5-0.9-1.6-1.2-2.6-0.8l0,0c0.7-0.7,0.8-1.9,0.1-2.7c-0.7-0.8-1.8-0.9-2.7-0.4l0,0c0.6-0.8,0.4-2-0.4-2.7
			c-0.8-0.7-1.9-0.6-2.7,0.1l-0.1,0c0.4-0.9,0.1-2-0.8-2.5c-0.9-0.5-2-0.3-2.6,0.5l-0.1,0c0.2-1-0.3-2-1.3-2.3c-1-0.4-2,0.1-2.5,1
			l-0.1,0c0-1-0.7-1.9-1.7-2.1c-1-0.2-2,0.4-2.3,1.4l-0.1,0c-0.1-1-1-1.8-2-1.8c-1,0-1.8,0.7-2,1.7c-0.3-0.9-1.3-1.5-2.3-1.3
			c-1,0.2-1.7,1.1-1.7,2l-0.1,0c-0.5-0.9-1.5-1.3-2.5-1c-1,0.3-1.5,1.3-1.3,2.3l-0.1,0c-0.6-0.8-1.7-1-2.6-0.5
			c-0.9,0.5-1.2,1.6-0.9,2.5l-0.1,0C10.9,5.2,9.8,5.2,9,5.8C8.2,6.5,8,7.6,8.5,8.4L8.5,8.5C7.6,8,6.5,8.1,5.9,8.9s-0.6,1.9,0,2.6
			l0,0.1c-0.9-0.4-2,0-2.5,0.9c-0.5,0.9-0.3,2,0.5,2.6l0,0.1c-1-0.2-2,0.3-2.3,1.3c-0.4,1,0.1,2,0.9,2.5l0,0.1c-1,0-1.9,0.7-2.1,1.7
			c-0.2,1,0.4,2,1.4,2.3l0,0.1c-1,0.1-1.8,1-1.8,2c0,1,0.7,1.8,1.7,2c-0.9,0.3-1.5,1.3-1.3,2.3c0.2,1,1.1,1.7,2.1,1.7l0,0.1
			c-0.9,0.5-1.3,1.5-1,2.5c0.4,1,1.4,1.5,2.3,1.3l0,0.1c-0.8,0.6-1,1.7-0.5,2.6c0.5,0.9,1.6,1.2,2.5,0.9l0,0.1
			c-0.7,0.7-0.7,1.9-0.1,2.7c0.7,0.8,1.8,0.9,2.7,0.4l0,0c-0.6,0.8-0.4,2,0.4,2.7c0.8,0.7,2,0.6,2.7-0.1l0,0c-0.4,0.9-0.1,2,0.8,2.6
			c0.9,0.5,2,0.3,2.6-0.6l0.1,0c-0.2,1,0.3,2,1.3,2.4c1,0.4,2.1-0.1,2.5-1l0.1,0c-0.1,1,0.6,2,1.7,2.1c1,0.2,2-0.5,2.3-1.4l0,0
			c0.1,1,1,1.8,2,1.8c1,0,1.8-0.7,2-1.7c0.3,0.9,1.3,1.5,2.3,1.3c1-0.2,1.7-1.1,1.7-2.1l0,0c0.4,0.9,1.5,1.4,2.5,1
			c1-0.4,1.5-1.4,1.3-2.4l0,0c0.6,0.8,1.7,1.1,2.7,0.6c0.9-0.5,1.3-1.7,0.8-2.6l0,0c0.7,0.7,1.9,0.8,2.7,0.1
			c0.8-0.7,0.9-1.8,0.4-2.7l0,0c0.9,0.6,2,0.5,2.7-0.4c0.7-0.8,0.6-2-0.1-2.7l0,0c0.9,0.4,2.1,0.1,2.6-0.8c0.5-0.9,0.3-2.1-0.6-2.7
			l0,0c1,0.3,2-0.3,2.4-1.3c0.4-1-0.1-2.1-1-2.5l0,0c1,0.1,2-0.6,2.1-1.7C49.8,28.3,49.2,27.3,48.2,27.1z"/>
		<g>
			<path style="&st2;" d="M8.6,21.2l0.9,0.2L9.5,21c0-0.1,0-0.2,0-0.3c0-0.1-0.2-0.2-0.3-0.3c-0.2,0-0.4,0-0.5,0.1
				c0,0.1-0.1,0.1-0.1,0.2L8.6,21.2z M7.3,20.9L8,21.1l0.1-0.4c0-0.2,0-0.2,0-0.3c0-0.1-0.2-0.2-0.3-0.3c-0.1,0-0.3,0-0.4,0.1
				c0,0.1-0.1,0.1-0.1,0.3L7.3,20.9z M6.6,21.4l0.3-1.1c0.1-0.4,0.2-0.6,0.4-0.7c0.2-0.1,0.4-0.2,0.6-0.1c0.2,0.1,0.4,0.2,0.5,0.4
				C8.5,20,8.5,20,8.5,20.2c0.2-0.4,0.6-0.5,1-0.4c0.4,0.1,0.8,0.5,0.7,1.1c0,0.1-0.1,0.2-0.1,0.4l-0.3,1L6.6,21.4z"/>
			<polygon style="&st2;" points="7.6,18.2 8.3,16.4 8.8,16.7 8.3,17.8 9,18.1 9.4,17.2 9.9,17.4 9.5,18.3 10.3,18.7 10.8,17.5 
				11.4,17.8 10.6,19.5 			"/>
			<path style="&st2;" d="M8.9,15.4l0.4-0.6l1.5,0.2c0.4,0.1,0.7,0.1,1,0.2c-0.2-0.1-0.6-0.3-0.8-0.5l-1.1-0.7l0.4-0.5l2.7,1.9
				L12.5,16l-1.4-0.2c-0.4-0.1-0.9-0.2-1.1-0.2c0.2,0.1,0.6,0.3,0.8,0.5l1.2,0.8l-0.4,0.5L8.9,15.4z"/>
			<polygon style="&st2;" points="11,12.6 12.3,11.2 12.6,11.6 11.8,12.5 12.4,13 13,12.3 13.4,12.7 12.8,13.4 13.4,14 14.3,13.1 
				14.7,13.5 13.3,14.9 			"/>
			<polygon style="&st2;" points="13.1,10.5 14.5,9.4 14.8,9.9 13.9,10.6 14.4,11.2 15.1,10.6 15.4,11.1 14.7,11.6 15.6,12.7 
				15.1,13.1 			"/>
			
				<rect x="15.9" y="8.6" transform="matrix(-0.8558 0.5173 -0.5173 -0.8558 35.5521 10.6344)" style="&st2;" width="0.7" height="3.3"/>
			<path style="&st2;" d="M18.8,7.4L18.7,8c-0.2,0-0.4,0-0.6,0c-0.2,0.1-0.4,0.3-0.4,0.5c0,0.2,0,0.5,0.2,0.9
				c0.2,0.4,0.3,0.6,0.5,0.8c0.2,0.2,0.5,0.2,0.7,0.1c0.2-0.1,0.3-0.2,0.4-0.3l0-0.1L20,10c-0.2,0.3-0.4,0.5-0.7,0.7
				c-0.4,0.2-0.8,0.2-1.2,0c-0.4-0.2-0.6-0.5-0.8-0.9c-0.2-0.4-0.2-0.7-0.2-1c0-0.5,0.4-1,0.9-1.2C18.2,7.4,18.5,7.4,18.8,7.4z"/>
			
				<rect x="20" y="6.8" transform="matrix(-0.959 0.2835 -0.2835 -0.959 42.2359 10.8929)" style="&st2;" width="0.7" height="3.3"/>
			<path style="&st2;" d="M22.6,6.8c-0.2,0-0.4,0.2-0.5,0.4c-0.1,0.2-0.1,0.5,0,0.9c0.1,0.6,0.2,0.9,0.4,1c0.1,0.1,0.3,0.1,0.4,0.1
				c0.5-0.1,0.6-0.4,0.5-1.3c0-0.3-0.1-0.6-0.2-0.7C23.2,7,23,6.7,22.6,6.8z M22.6,6.3c0.9-0.1,1.5,0.4,1.6,1.5
				c0.1,0.7-0.1,1.3-0.5,1.7c-0.2,0.1-0.4,0.2-0.6,0.2c-0.5,0.1-0.8,0-1.1-0.3c-0.3-0.3-0.5-0.7-0.5-1.2c-0.1-0.7,0.1-1.3,0.5-1.6
				C22.1,6.4,22.3,6.3,22.6,6.3z"/>
		</g>
		<g>
			<polygon style="&st1;" points="21.9,14.7 23.7,14.8 23.7,15 22.9,15 22.9,20.2 22.7,20.2 22.7,15 21.9,15 			"/>
			<polygon style="&st1;" points="25.6,20.2 25.6,16.9 24.4,16.9 24.4,20.2 24.2,20.2 24.2,15.7 24.4,15.7 24.4,16.7 25.6,16.7 
				25.6,15.7 25.8,15.7 25.8,20.2 			"/>
			<path style="&st2;" d="M27.5,18.8c0.1,0,0.2,0.1,0.2,0.2c0,0.1-0.1,0.2-0.2,0.2c-0.1,0-0.2-0.1-0.2-0.2
				C27.3,18.9,27.4,18.8,27.5,18.8z M26.6,15.7h1.5l0,0.2h-1.3V20h1.3v0.2h-1.5V15.7z"/>
			<path style="&st2;" d="M20.4,27.3c-0.7,0.6-1.4,1-2.2,1.1V33c0.8-0.2,1.5-0.6,2.1-1.2c0.6-0.7,0.8-1.4,0.8-2.3
				C21.1,28.7,20.8,28,20.4,27.3z M18.2,27.8c0.7-0.1,1.3-0.4,1.8-1c0.5-0.6,0.7-1.2,0.7-2c0-0.7-0.2-1.4-0.7-2
				c-0.5-0.6-1.1-0.9-1.8-1L18.2,27.8z M20.7,26.8c0.3,0.4,0.5,0.8,0.7,1.3c0.2,0.5,0.3,0.9,0.3,1.4c0,1.1-0.4,2.1-1.2,3
				c-0.8,0.8-1.8,1.3-2.9,1.3l0-12.5l0.3,0l0.2,0l0.2,0c0.9,0.1,1.6,0.5,2.2,1.2c0.6,0.7,0.9,1.5,0.9,2.4
				C21.3,25.5,21.1,26.2,20.7,26.8z"/>
			<path style="&st2;" d="M25.6,27.3c-0.7,0.6-1.4,1-2.2,1.1V33c0.8-0.2,1.5-0.6,2.1-1.2c0.6-0.7,0.8-1.4,0.8-2.3
				C26.3,28.7,26.1,28,25.6,27.3z M23.4,27.8c0.7-0.1,1.3-0.4,1.8-1c0.5-0.6,0.7-1.2,0.7-2c0-0.7-0.2-1.4-0.7-2
				c-0.5-0.6-1.1-0.9-1.8-1L23.4,27.8z M26,26.8c0.3,0.4,0.5,0.8,0.7,1.3c0.2,0.5,0.3,0.9,0.3,1.4c0,1.1-0.4,2.1-1.2,3
				c-0.8,0.8-1.8,1.3-2.9,1.3l0-12.5l0.3,0l0.2,0l0.2,0c0.9,0.1,1.6,0.5,2.2,1.2c0.6,0.7,0.9,1.5,0.9,2.4
				C26.5,25.5,26.3,26.2,26,26.8z"/>
			<polygon style="&st1;" points="31.9,33.7 31.9,24.5 28.6,24.5 28.6,33.7 28,33.7 28,21.2 28.6,21.2 28.6,23.9 31.9,23.9 
				31.9,21.2 32.5,21.2 32.5,33.7 			"/>
		</g>
		<g>
			<path style="&st2;" d="M28,7l-0.1,0.7l0.4,0.1c0.2,0,0.2,0,0.3,0c0.1,0,0.2-0.2,0.2-0.3c0-0.1,0-0.3-0.1-0.4
				c-0.1,0-0.1-0.1-0.3-0.1L28,7z M27.8,8.2l-0.2,0.9L28,9.2c0.1,0,0.2,0,0.3,0c0.1-0.1,0.2-0.2,0.2-0.3c0-0.2,0-0.4-0.2-0.4
				c-0.1,0-0.1,0-0.2-0.1L27.8,8.2z M27.5,6.3l1.1,0.2c0.4,0.1,0.6,0.2,0.8,0.4c0.2,0.2,0.2,0.4,0.2,0.6c0,0.2-0.2,0.4-0.3,0.5
				C29,8.1,29,8.1,28.8,8.1c0.4,0.2,0.6,0.5,0.5,0.9c-0.1,0.5-0.4,0.8-1,0.7c-0.1,0-0.2,0-0.4-0.1l-1-0.2L27.5,6.3z"/>
			<path style="&st2;" d="M31.7,7.8c-0.2-0.1-0.4,0-0.6,0.1c-0.2,0.2-0.3,0.4-0.5,0.8c-0.2,0.5-0.2,0.9-0.1,1.1
				c0.1,0.1,0.2,0.2,0.3,0.2c0.4,0.2,0.7-0.1,1-0.9c0.1-0.3,0.2-0.6,0.2-0.7C32.1,8.3,32,8,31.7,7.8z M31.9,7.4
				c0.8,0.3,1.1,1.1,0.7,2.1c-0.3,0.7-0.7,1.1-1.3,1.2c-0.2,0-0.4,0-0.7-0.1c-0.5-0.2-0.7-0.4-0.8-0.8c-0.1-0.4-0.1-0.8,0.1-1.3
				c0.3-0.7,0.7-1.1,1.2-1.2C31.4,7.2,31.6,7.3,31.9,7.4z"/>
			<path style="&st2;" d="M34,8.3l0.6,0.4l-1.1,1.9c-0.1,0.2-0.2,0.3-0.2,0.4c0,0.2,0.1,0.3,0.3,0.4c0.2,0.2,0.5,0.1,0.6-0.1
				c0-0.1,0.1-0.1,0.2-0.2l1.1-1.8L36,9.6l-1.2,1.9c-0.2,0.3-0.2,0.3-0.3,0.4c-0.2,0.2-0.7,0.3-1.3-0.1c-0.4-0.3-0.7-0.6-0.7-0.9
				c0-0.2,0-0.3,0.2-0.6L34,8.3z"/>
			<polygon style="&st2;" points="36.6,10.1 38.4,11.6 38,12 37.4,11.4 35.6,13.5 35.1,13.1 36.9,11 36.3,10.5 			"/>
			
				<rect x="37.5" y="11.8" transform="matrix(-0.6747 -0.7381 0.7381 -0.6747 53.4927 50.5079)" style="&st2;" width="0.7" height="3.3"/>
			<path style="&st2;" d="M40.3,14.7c-0.1-0.2-0.3-0.3-0.5-0.3c-0.2,0-0.5,0.1-0.8,0.4c-0.5,0.3-0.7,0.6-0.7,0.8
				c0,0.1,0,0.3,0.1,0.4c0.3,0.4,0.7,0.3,1.4-0.1c0.3-0.2,0.5-0.4,0.6-0.5C40.4,15.2,40.5,15,40.3,14.7z M38.6,16.8
				c0,0.1,0,0.3,0,0.4c0,0.1,0,0.3,0.1,0.4s0.2,0.2,0.2,0.2l-0.5,0.1c0,0-0.1,0-0.2-0.2c-0.1-0.2-0.1-0.5-0.2-0.6
				c0-0.2,0-0.5-0.1-0.7c-0.3-0.4-0.4-0.8-0.2-1.1c0.1-0.4,0.4-0.7,0.8-1c0.6-0.4,1.2-0.5,1.7-0.3c0.2,0.1,0.4,0.3,0.5,0.5
				c0.5,0.7,0.3,1.5-0.6,2.1C39.6,16.9,39,17,38.6,16.8z"/>
			<path style="&st2;" d="M41.9,16.2l0.3,0.6l-2,0.9c-0.2,0.1-0.3,0.1-0.3,0.2c-0.1,0.1-0.1,0.3,0,0.5c0.1,0.3,0.3,0.4,0.6,0.3
				c0.1,0,0.1,0,0.3-0.1l1.9-0.9l0.3,0.6l-2,0.9c-0.3,0.1-0.3,0.2-0.5,0.2c-0.3,0-0.7-0.1-1-0.8c-0.2-0.5-0.2-0.9,0-1.2
				c0.1-0.2,0.2-0.3,0.5-0.4L41.9,16.2z"/>
			<polygon style="&st2;" points="43.2,19.4 43.7,21.2 43.1,21.3 42.8,20.2 42.1,20.4 42.3,21.3 41.8,21.4 41.6,20.5 40.7,20.8 
				41,22 40.5,22.1 40,20.3 			"/>
		</g>
		<path style="&st2;" d="M25,11.7c-7.3,0-13.3,6-13.3,13.3s6,13.3,13.3,13.3c7.3,0,13.3-6,13.3-13.3S32.3,11.7,25,11.7z M25,38.8
			c-7.6,0-13.8-6.2-13.8-13.8S17.4,11.2,25,11.2S38.8,17.4,38.8,25S32.6,38.8,25,38.8z"/>
		<path style="&st2;" d="M25,4C13.4,4,4,13.4,4,25c0,11.6,9.4,21,21,21c11.6,0,21-9.4,21-21C46,13.4,36.6,4,25,4z M25,46.8
			C13,46.8,3.2,37,3.2,25S13,3.2,25,3.2S46.8,13,46.8,25S37,46.8,25,46.8z"/>
		<polygon style="&st1;" points="7.8,24.8 8.2,25.4 8.9,25.6 8.4,26.2 8.5,27 7.8,26.7 7.1,27 7.2,26.2 6.7,25.6 7.4,25.4 		"/>
		<polygon style="&st1;" points="42.4,24.8 42.8,25.4 43.6,25.6 43.1,26.2 43.1,27 42.4,26.7 41.7,27 41.8,26.2 41.3,25.6 42,25.4 
					"/>
		<g>
			<path style="&st2;" d="M9.9,31.2l-0.7,0.3l0.2,0.4c0.1,0.1,0.1,0.2,0.2,0.2c0.1,0.1,0.3,0.1,0.4,0c0.1-0.1,0.2-0.2,0.2-0.3
				c0-0.1,0-0.1-0.1-0.3L9.9,31.2z M8.7,31.7l-0.8,0.3l0.2,0.4c0.1,0.1,0.1,0.2,0.2,0.3c0.1,0.1,0.3,0.1,0.4,0
				C8.9,32.6,9,32.5,9,32.3c0-0.1,0-0.1-0.1-0.2L8.7,31.7z M10.2,30.4l0.4,1c0.2,0.4,0.2,0.6,0.1,0.8c-0.1,0.2-0.2,0.4-0.4,0.5
				c-0.2,0.1-0.4,0.1-0.6,0c-0.1-0.1-0.2-0.1-0.3-0.2c0.1,0.5-0.1,0.8-0.5,0.9C8.5,33.6,8,33.5,7.7,33c0-0.1-0.1-0.2-0.2-0.4l-0.4-1
				L10.2,30.4z"/>
			<path style="&st2;" d="M11.6,34.2c-0.1-0.2-0.3-0.3-0.5-0.3c-0.2,0-0.5,0.1-0.8,0.4c-0.5,0.3-0.7,0.6-0.7,0.8
				c0,0.1,0,0.3,0.1,0.4c0.3,0.4,0.7,0.4,1.4-0.1c0.3-0.2,0.5-0.3,0.6-0.5C11.7,34.7,11.8,34.5,11.6,34.2z M12,33.9
				c0.5,0.7,0.3,1.5-0.6,2.1c-0.6,0.4-1.2,0.5-1.7,0.3c-0.2-0.1-0.3-0.2-0.5-0.5C8.9,35.4,8.9,35,9,34.6c0.1-0.4,0.4-0.7,0.8-1
				c0.6-0.4,1.2-0.5,1.7-0.2C11.7,33.5,11.9,33.7,12,33.9z"/>
			<path style="&st2;" d="M13,35.4l0.5,0.5L12,37.4c-0.2,0.2-0.2,0.2-0.2,0.3c-0.1,0.2,0,0.3,0.2,0.5c0.2,0.2,0.4,0.2,0.6,0.1
				c0.1,0,0.1-0.1,0.2-0.2l1.5-1.5l0.5,0.5l-1.6,1.6c-0.2,0.2-0.3,0.3-0.4,0.3c-0.2,0.1-0.7,0.1-1.2-0.4c-0.4-0.4-0.5-0.7-0.4-1.1
				c0-0.2,0.1-0.3,0.3-0.5L13,35.4z"/>
			<polygon style="&st2;" points="14.9,37.3 16.9,38.7 16.5,39 15.8,38.6 14.2,40.8 13.7,40.4 15.3,38.2 14.6,37.7 			"/>
			
				<rect x="16.4" y="38.8" transform="matrix(-0.8776 -0.4793 0.4793 -0.8776 12.1245 84.0426)" style="&st2;" width="0.7" height="3.3"/>
			<path style="&st2;" d="M19.5,40.4c-0.2-0.1-0.4,0-0.6,0.1c-0.2,0.2-0.3,0.4-0.5,0.8c-0.2,0.5-0.2,0.9-0.1,1.1
				c0.1,0.1,0.2,0.2,0.3,0.2c0.4,0.2,0.7-0.1,1-0.9c0.1-0.3,0.2-0.6,0.2-0.7C19.9,40.8,19.9,40.5,19.5,40.4z M19.3,43.2
				c0.1,0.1,0.2,0.2,0.2,0.3c0.1,0.1,0.2,0.2,0.3,0.3c0.1,0,0.3,0.1,0.3,0.1l-0.3,0.3c0,0-0.1,0-0.3,0c-0.2-0.1-0.4-0.3-0.5-0.4
				c-0.1-0.2-0.3-0.4-0.5-0.5c-0.5-0.2-0.7-0.4-0.8-0.8c-0.1-0.4-0.1-0.8,0.1-1.3c0.2-0.7,0.7-1.1,1.2-1.2c0.2,0,0.5,0,0.7,0.1
				c0.8,0.3,1.1,1.1,0.8,2.1C20.2,42.7,19.8,43.1,19.3,43.2z"/>
			<path style="&st2;" d="M21.3,40.5l0.7,0.1l-0.4,2.1c0,0.2,0,0.3,0,0.4c0.1,0.2,0.2,0.3,0.4,0.3c0.3,0.1,0.5-0.1,0.6-0.3
				c0-0.1,0-0.1,0.1-0.3l0.4-2.1l0.7,0.1l-0.4,2.2c-0.1,0.3-0.1,0.4-0.1,0.5c-0.1,0.2-0.5,0.5-1.2,0.4c-0.5-0.1-0.8-0.3-1-0.6
				c-0.1-0.2-0.1-0.3,0-0.6L21.3,40.5z"/>
			<polygon style="&st2;" points="24.2,41 26.1,41 26,41.5 24.9,41.5 24.9,42.3 25.8,42.3 25.8,42.8 24.9,42.8 24.9,43.7 26.1,43.7 
				26.1,44.3 24.2,44.3 			"/>
			<path style="&st2;" d="M29.5,42.3l0.2,0.9l0.4-0.1c0.1,0,0.2-0.1,0.3-0.2c0.1-0.1,0.1-0.3,0.1-0.4c-0.1-0.2-0.2-0.3-0.3-0.3
				c-0.1,0-0.1,0-0.3,0L29.5,42.3z M29.2,41.1l0.2,0.7l0.4-0.1c0.2,0,0.2-0.1,0.3-0.1c0.1-0.1,0.1-0.2,0.1-0.4
				c0-0.1-0.1-0.2-0.3-0.3c-0.1,0-0.1,0-0.3,0L29.2,41.1z M28.4,40.7l1.1-0.3c0.4-0.1,0.6-0.1,0.8,0c0.2,0.1,0.4,0.3,0.4,0.5
				c0.1,0.2,0,0.4-0.1,0.6c-0.1,0.1-0.1,0.2-0.2,0.2c0.5,0,0.7,0.2,0.9,0.6c0.1,0.4,0,0.9-0.6,1.1c-0.1,0-0.2,0.1-0.4,0.1l-1,0.3
				L28.4,40.7z"/>
			<polygon style="&st2;" points="31.1,39.9 32.8,39.1 33,39.6 31.9,40.1 32.2,40.8 33.1,40.4 33.3,40.9 32.5,41.3 32.9,42.1 
				34,41.5 34.2,42.1 32.5,42.9 			"/>
			<path style="&st2;" d="M33.3,38.8l0.6-0.4l1.3,0.7c0.3,0.2,0.6,0.4,0.8,0.6c-0.2-0.2-0.4-0.5-0.6-0.7l-0.8-1.1l0.5-0.4l1.9,2.7
				l-0.6,0.4l-1.2-0.7c-0.4-0.2-0.8-0.5-1-0.6c0.2,0.2,0.4,0.5,0.6,0.8l0.8,1.2l-0.5,0.4L33.3,38.8z"/>
			<polygon style="&st2;" points="35.6,37.1 37,35.8 37.3,36.2 36.5,37 37,37.6 37.7,36.9 38.1,37.3 37.4,37.9 38,38.6 38.9,37.7 
				39.3,38.1 38,39.5 			"/>
			<polygon style="&st2;" points="37.4,35.3 38.5,33.9 38.8,34.3 38.2,35.1 38.8,35.6 39.3,34.9 39.7,35.2 39.2,35.9 40.4,36.8 
				40,37.3 			"/>
			
				<rect x="40" y="32.3" transform="matrix(-0.5068 0.862 -0.862 -0.5068 90.0198 16.4441)" style="&st2;" width="0.7" height="3.3"/>
			<polygon style="&st2;" points="39.3,32.4 40.3,30.2 40.7,30.5 40.4,31.3 43,32.3 42.7,33 40.2,31.9 39.8,32.6 			"/>
		</g>
	</g>
</g>
</svg>
