<?xml version="1.0" encoding="utf-8"?>
<!-- Generator: Adobe Illustrator 16.0.0, SVG Export Plug-In . SVG Version: 6.00 Build 0)  -->
<!DOCTYPE svg PUBLIC "-//W3C//DTD SVG 1.1//EN" "http://www.w3.org/Graphics/SVG/1.1/DTD/svg11.dtd">
<svg version="1.1" id="Layer_1" xmlns="http://www.w3.org/2000/svg" xmlns:xlink="http://www.w3.org/1999/xlink" x="0px" y="0px"
	 width="104.4px" height="60.4px" viewBox="0 0 104.4 60.4" enable-background="new 0 0 104.4 60.4" xml:space="preserve">
<g>
	<g>
		<path fill-rule="evenodd" clip-rule="evenodd" fill="#B5975D" d="M28.4,48.7l-0.2,0.2c-2.7,2.7-5.7,4.1-9,4.1
			c-6.8,0-11.7-4.9-11.7-11.9c0-7.2,4.9-12.1,11.7-12.1c3.3,0,6.3,1.4,9,4.1l0.2,0.2l4.3-5.1v-0.2c-3.7-4.3-8-6.4-13.3-6.4
			S9.2,23.4,5.7,26.7C1.8,30.2,0,35.1,0,41.1c0,5.8,1.8,10.7,5.7,14.2c3.5,3.3,8.4,5.1,13.7,5.1s9.6-2,13.3-6.4v-0.2L28.4,48.7z"/>
		<rect x="37.5" y="22.2" fill-rule="evenodd" clip-rule="evenodd" fill="#B5975D" width="7.6" height="37.4"/>
		<path fill-rule="evenodd" clip-rule="evenodd" fill="#B5975D" d="M73.7,51.6c-1.8,1.2-3.9,1.9-5.5,1.9c-2.4,0-3.7-1.2-3.7-4.3
			V29.4h7.8v-7.2h-7.8V10.5l-7.4,4.1v7.6h-6.5v7.2h6.5v21.2c0,5.8,3.3,9.7,8.4,9.7c3.5,0.2,5.5-0.8,6.8-1.6h0.2v-0.2l1.8-7.2
			L73.7,51.6z"/>
		<rect x="79.2" y="22.2" fill-rule="evenodd" clip-rule="evenodd" fill="#B5975D" width="7.8" height="37.4"/>
		<path fill="#E20313" d="M62.1,7.7c8.4,0,16.1,3.4,21.7,8.8h10C86.8,6.5,75.2,0,62.1,0C49.1,0,37.5,6.5,30.5,16.5h10
			C46.1,11,53.7,7.7,62.1,7.7z"/>
		<path fill-rule="evenodd" clip-rule="evenodd" fill="#B5975D" d="M100.1,14.4c0.5,0,0.8-0.2,0.8-0.6c0-0.4-0.3-0.6-0.8-0.6h-0.6
			v1.2H100.1z M98.4,12.1h1.8c1.1,0,1.8,0.5,1.8,1.5c0,0.7-0.4,1.1-0.9,1.4l0.9,1.8h-1.2l-0.8-1.7h-0.6v1.7h-1.1V12.1z M103.5,14.6
			c0-2-1.5-3.6-3.5-3.6s-3.4,1.5-3.4,3.5c0,2,1.5,3.6,3.5,3.6C102,18.1,103.5,16.6,103.5,14.6z M95.7,14.6c0-2.4,1.9-4.4,4.3-4.4
			c2.4,0,4.3,1.9,4.3,4.3c0,2.5-1.9,4.4-4.3,4.4C97.6,18.9,95.7,17.1,95.7,14.6z"/>
	</g>
</g>
</svg>
